<svg width="53" height="54" viewBox="0 0 53 54" fill="none" xmlns="http://www.w3.org/2000/svg">
<circle cx="26.3889" cy="26.8929" r="26.3889" fill="#181818"/>
<path d="M27.1146 32.5925C30.4929 32.5925 33.2316 29.8538 33.2316 26.4755C33.2316 23.0971 30.4929 20.3585 27.1146 20.3585C23.7362 20.3585 20.9976 23.0971 20.9976 26.4755C20.9976 29.8538 23.7362 32.5925 27.1146 32.5925Z" stroke="#F5F5F5" stroke-width="2" stroke-linecap="round" stroke-linejoin="round"/>
<path d="M35.718 20.5094C36.0257 20.9442 36.2951 21.4042 36.5232 21.8843L39.8332 23.7007C40.2465 25.5277 40.2509 27.4217 39.846 29.2506L36.5232 31.0669C36.2951 31.5471 36.0257 32.0071 35.718 32.4418L35.7819 36.188C34.3791 37.4497 32.7188 38.4002 30.9127 38.9756L27.6538 37.0457C27.1177 37.0836 26.5796 37.0836 26.0435 37.0457L22.7973 38.963C20.9855 38.398 19.3197 37.4512 17.9153 36.188L17.9792 32.4544C17.6741 32.0136 17.4049 31.5497 17.1741 31.0669L13.864 29.2506C13.4507 27.4236 13.4464 25.5295 13.8513 23.7007L17.1741 21.8843C17.4022 21.4042 17.6716 20.9442 17.9792 20.5094L17.9153 16.7632C19.3181 15.5016 20.9784 14.5511 22.7846 13.9756L26.0435 15.9055C26.5796 15.8677 27.1177 15.8677 27.6538 15.9055L30.8999 13.9883C32.7118 14.5532 34.3775 15.5001 35.7819 16.7632L35.718 20.5094Z" stroke="#F5F5F5" stroke-width="2" stroke-linecap="round" stroke-linejoin="round"/>
</svg>
