<svg width="25" height="24" viewBox="0 0 25 24" fill="none" xmlns="http://www.w3.org/2000/svg">
<path d="M17.5194 2.38972C18.8447 2.39352 20.1146 2.90182 21.0517 3.8036C21.9888 4.70538 22.5171 5.92737 22.521 7.20267V16.8275C22.5171 18.1028 21.9888 19.3248 21.0517 20.2266C20.1146 21.1284 18.8447 21.6367 17.5194 21.6405H7.51717C6.19187 21.6367 4.92198 21.1284 3.98485 20.2266C3.04772 19.3248 2.51949 18.1028 2.51553 16.8275V7.20267C2.51949 5.92737 3.04772 4.70538 3.98485 3.8036C4.92198 2.90182 6.19187 2.39352 7.51717 2.38972H17.5194ZM17.5194 0.464844H7.51717C3.66601 0.464844 0.515198 3.49679 0.515198 7.20267V16.8275C0.515198 20.5334 3.66601 23.5654 7.51717 23.5654H17.5194C21.3705 23.5654 24.5214 20.5334 24.5214 16.8275V7.20267C24.5214 3.49679 21.3705 0.464844 17.5194 0.464844Z" fill="#181818"/>
<path d="M19.0192 7.20324C18.7225 7.20324 18.4324 7.11856 18.1856 6.95992C17.9389 6.80127 17.7466 6.57579 17.633 6.31197C17.5195 6.04815 17.4898 5.75786 17.5476 5.47779C17.6055 5.19772 17.7484 4.94047 17.9583 4.73855C18.1681 4.53663 18.4354 4.39913 18.7265 4.34342C19.0175 4.28771 19.3192 4.3163 19.5934 4.42558C19.8675 4.53485 20.1019 4.71991 20.2667 4.95733C20.4316 5.19476 20.5196 5.4739 20.5196 5.75946C20.52 5.94917 20.4815 6.1371 20.4062 6.31245C20.331 6.4878 20.2205 6.64713 20.0811 6.78128C19.9417 6.91542 19.7761 7.02176 19.5939 7.09417C19.4116 7.16658 19.2164 7.20365 19.0192 7.20324ZM12.5177 8.16542C13.3091 8.16542 14.0827 8.39123 14.7407 8.8143C15.3987 9.23738 15.9115 9.83871 16.2143 10.5422C16.5172 11.2458 16.5964 12.0199 16.442 12.7668C16.2876 13.5137 15.9066 14.1998 15.347 14.7382C14.7874 15.2767 14.0745 15.6434 13.2983 15.792C12.5222 15.9405 11.7176 15.8643 10.9865 15.5729C10.2554 15.2814 9.63049 14.7879 9.19084 14.1548C8.75118 13.5216 8.51651 12.7772 8.51651 12.0157C8.51765 10.9949 8.93956 10.0162 9.68969 9.29434C10.4398 8.57251 11.4569 8.16651 12.5177 8.16542ZM12.5177 6.24055C11.3307 6.24055 10.1704 6.57925 9.18344 7.21383C8.19649 7.84841 7.42726 8.75036 6.97302 9.80563C6.51877 10.8609 6.39992 12.0221 6.63149 13.1424C6.86307 14.2626 7.43466 15.2916 8.27399 16.0993C9.11332 16.907 10.1827 17.457 11.3469 17.6798C12.5111 17.9027 13.7178 17.7883 14.8144 17.3512C15.911 16.9141 16.8484 16.1739 17.5078 15.2242C18.1673 14.2745 18.5193 13.1579 18.5193 12.0157C18.5193 10.484 17.8869 9.01509 16.7614 7.93204C15.6359 6.849 14.1094 6.24055 12.5177 6.24055Z" fill="#181818"/>
</svg>
