<svg width="39" height="39" viewBox="0 0 39 39" fill="none" xmlns="http://www.w3.org/2000/svg">
<path d="M19.4902 0.144226C15.7324 0.144226 12.0589 1.25856 8.93441 3.3463C5.80987 5.43405 3.3746 8.40144 1.93653 11.8732C0.498467 15.345 0.122203 19.1653 0.855323 22.8509C1.58844 26.5366 3.39802 29.9221 6.05521 32.5793C8.71241 35.2364 12.0979 37.046 15.7835 37.7791C19.4692 38.5123 23.2894 38.136 26.7612 36.6979C30.233 35.2599 33.2004 32.8246 35.2882 29.7001C37.3759 26.5755 38.4902 22.9021 38.4902 19.1442C38.4806 14.1081 36.4757 9.28096 32.9146 5.71986C29.3535 2.15876 24.5264 0.153883 19.4902 0.144226ZM21.6825 27.9135H20.9518V29.375C20.9518 29.7626 20.7978 30.1344 20.5237 30.4085C20.2496 30.6825 19.8779 30.8365 19.4902 30.8365C19.1026 30.8365 18.7309 30.6825 18.4568 30.4085C18.1827 30.1344 18.0287 29.7626 18.0287 29.375V27.9135H15.1056C14.718 27.9135 14.3463 27.7595 14.0722 27.4854C13.7981 27.2113 13.6441 26.8395 13.6441 26.4519C13.6441 26.0643 13.7981 25.6925 14.0722 25.4184C14.3463 25.1444 14.718 24.9904 15.1056 24.9904H21.6825C22.264 24.9904 22.8216 24.7594 23.2327 24.3483C23.6439 23.9371 23.8749 23.3795 23.8749 22.7981C23.8749 22.2166 23.6439 21.659 23.2327 21.2479C22.8216 20.8367 22.264 20.6058 21.6825 20.6058H17.2979C15.9412 20.6058 14.6401 20.0668 13.6808 19.1075C12.7215 18.1482 12.1825 16.8471 12.1825 15.4904C12.1825 14.1337 12.7215 12.8326 13.6808 11.8733C14.6401 10.9139 15.9412 10.375 17.2979 10.375H18.0287V8.91346C18.0287 8.52583 18.1827 8.15408 18.4568 7.87999C18.7309 7.6059 19.1026 7.45192 19.4902 7.45192C19.8779 7.45192 20.2496 7.6059 20.5237 7.87999C20.7978 8.15408 20.9518 8.52583 20.9518 8.91346V10.375H23.8749C24.2625 10.375 24.6342 10.529 24.9083 10.8031C25.1824 11.0772 25.3364 11.4489 25.3364 11.8365C25.3364 12.2242 25.1824 12.5959 24.9083 12.87C24.6342 13.1441 24.2625 13.2981 23.8749 13.2981H17.2979C16.7165 13.2981 16.1589 13.529 15.7477 13.9402C15.3366 14.3513 15.1056 14.9089 15.1056 15.4904C15.1056 16.0718 15.3366 16.6294 15.7477 17.0406C16.1589 17.4517 16.7165 17.6827 17.2979 17.6827H21.6825C23.0392 17.6827 24.3403 18.2216 25.2997 19.1809C26.259 20.1403 26.7979 21.4414 26.7979 22.7981C26.7979 24.1548 26.259 25.4559 25.2997 26.4152C24.3403 27.3745 23.0392 27.9135 21.6825 27.9135Z" fill="#181818"/>
</svg>
