<svg width="39" height="27" viewBox="0 0 39 27" fill="none" xmlns="http://www.w3.org/2000/svg">
<path d="M35.7759 0.144226H3.20452C2.48465 0.144226 1.79426 0.418325 1.28523 0.906225C0.776203 1.39412 0.490234 2.05586 0.490234 2.74585V8.09545V23.5426C0.490234 24.2326 0.776203 24.8943 1.28523 25.3822C1.79426 25.8701 2.48465 26.1442 3.20452 26.1442H35.7759C36.4958 26.1442 37.1862 25.8701 37.6952 25.3822C38.2043 24.8943 38.4902 24.2326 38.4902 23.5426V2.74585C38.4902 2.05586 38.2043 1.39412 37.6952 0.906225C37.1862 0.418325 36.4958 0.144226 35.7759 0.144226ZM20.8474 20.9572H18.1331C17.7732 20.9572 17.428 20.8202 17.1734 20.5762C16.9189 20.3323 16.7759 20.0014 16.7759 19.6564C16.7759 19.3114 16.9189 18.9806 17.1734 18.7366C17.428 18.4927 17.7732 18.3556 18.1331 18.3556H20.8474C21.2073 18.3556 21.5525 18.4927 21.807 18.7366C22.0615 18.9806 22.2045 19.3114 22.2045 19.6564C22.2045 20.0014 22.0615 20.3323 21.807 20.5762C21.5525 20.8202 21.2073 20.9572 20.8474 20.9572ZM31.7045 20.9572H26.2759C25.916 20.9572 25.5708 20.8202 25.3163 20.5762C25.0618 20.3323 24.9188 20.0014 24.9188 19.6564C24.9188 19.3114 25.0618 18.9806 25.3163 18.7366C25.5708 18.4927 25.916 18.3556 26.2759 18.3556H31.7045C32.0645 18.3556 32.4097 18.4927 32.6642 18.7366C32.9187 18.9806 33.0617 19.3114 33.0617 19.6564C33.0617 20.0014 32.9187 20.3323 32.6642 20.5762C32.4097 20.8202 32.0645 20.9572 31.7045 20.9572ZM3.20452 6.79463V2.74585H35.7759V6.79463H3.20452Z" fill="#FFCC4A"/>
</svg>
