<svg width="35" height="27" viewBox="0 0 35 27" fill="none" xmlns="http://www.w3.org/2000/svg">
<path d="M33.1825 0.144226H1.79793C1.45111 0.144226 1.11849 0.28119 0.873249 0.524987C0.628009 0.768785 0.490234 1.09944 0.490234 1.44423V23.5442C0.490234 24.2338 0.765783 24.8951 1.25626 25.3827C1.74674 25.8703 2.41198 26.1442 3.10562 26.1442H31.8748C32.5685 26.1442 33.2337 25.8703 33.7242 25.3827C34.2147 24.8951 34.4902 24.2338 34.4902 23.5442V1.44423C34.4902 1.09944 34.3525 0.768785 34.1072 0.524987C33.862 0.28119 33.5294 0.144226 33.1825 0.144226ZM3.10562 10.5442H9.64408V15.7442H3.10562V10.5442ZM12.2595 10.5442H31.8748V15.7442H12.2595V10.5442ZM3.10562 18.3442H9.64408V23.5442H3.10562V18.3442ZM31.8748 23.5442H12.2595V18.3442H31.8748V23.5442Z" fill="#181818"/>
</svg>
